HIERARCHY
ROOT joint_0
{
	OFFSET 0.000000 0.000000 0.000000
	CHANNELS 6 Xposition Yposition Zposition Zrotation Yrotation Xrotation 
	JOINT joint_1
	{
		OFFSET 5.091736 1.614004 124.993042
		CHANNELS 3 Zrotation Yrotation Xrotation
		JOINT joint_2
		{
			OFFSET -7.754517 4.363039 113.797974
			CHANNELS 3 Zrotation Yrotation Xrotation
			JOINT joint_3
			{
				OFFSET -8.706238 5.370684 113.558960
				CHANNELS 3 Zrotation Yrotation Xrotation
				JOINT joint_4
				{
					OFFSET 2.800659 5.843341 158.209106
					CHANNELS 3 Zrotation Yrotation Xrotation
					JOINT joint_5
					{
						OFFSET 20.525452 8.617594 92.185913
						CHANNELS 3 Zrotation Yrotation Xrotation
						End Site
						{
							OFFSET 0.000000 0.000000 0.000000
						}
					}
				}
				JOINT joint_6
				{
					OFFSET -4.183167 -30.671114 90.057007
					CHANNELS 3 Zrotation Yrotation Xrotation
					JOINT joint_7
					{
						OFFSET -24.729675 -138.200195 -6.097900
						CHANNELS 3 Zrotation Yrotation Xrotation
						JOINT joint_8
						{
							OFFSET 16.966858 -51.567780 -315.633057
							CHANNELS 3 Zrotation Yrotation Xrotation
							JOINT joint_9
							{
								OFFSET 129.835388 -40.459091 176.646973
								CHANNELS 3 Zrotation Yrotation Xrotation
								End Site
								{
									OFFSET 0.000000 0.000000 0.000000
								}
							}
						}
					}
				}
				JOINT joint_10
				{
					OFFSET 7.338745 37.199406 87.346069
					CHANNELS 3 Zrotation Yrotation Xrotation
					JOINT joint_11
					{
						OFFSET 20.327698 137.488367 -20.779053
						CHANNELS 3 Zrotation Yrotation Xrotation
						JOINT joint_12
						{
							OFFSET 150.763062 48.206573 -278.419922
							CHANNELS 3 Zrotation Yrotation Xrotation
							JOINT joint_13
							{
								OFFSET 12.571289 -162.355251 152.253906
								CHANNELS 3 Zrotation Yrotation Xrotation
								End Site
								{
									OFFSET 0.000000 0.000000 0.000000
								}
							}
						}
					}
				}
			}
		}
	}
	JOINT joint_14
	{
		OFFSET -7.600342 -77.970001 -95.010986
		CHANNELS 3 Zrotation Yrotation Xrotation
		JOINT joint_15
		{
			OFFSET -2.666199 -21.455009 -443.700989
			CHANNELS 3 Zrotation Yrotation Xrotation
			JOINT joint_16
			{
				OFFSET -22.487976 -19.310196 -481.059006
				CHANNELS 3 Zrotation Yrotation Xrotation
				JOINT joint_17
				{
					OFFSET 177.776611 65.723053 -82.445997
					CHANNELS 3 Zrotation Yrotation Xrotation
					End Site
					{
						OFFSET 0.000000 0.000000 0.000000
					}
				}
			}
		}
	}
	JOINT joint_18
	{
		OFFSET 17.063904 75.900681 -95.447021
		CHANNELS 3 Zrotation Yrotation Xrotation
		JOINT joint_19
		{
			OFFSET -21.510803 8.101997 -443.629944
			CHANNELS 3 Zrotation Yrotation Xrotation
			JOINT joint_20
			{
				OFFSET -7.473022 -28.501774 -481.230011
				CHANNELS 3 Zrotation Yrotation Xrotation
				JOINT joint_21
				{
					OFFSET 177.760559 -64.115177 -83.737001
					CHANNELS 3 Zrotation Yrotation Xrotation
					End Site
					{
						OFFSET 0.000000 0.000000 0.000000
					}
				}
			}
		}
	}
}
MOTION
Frames: 8
Frame Time: 0.016667
210.435211 -74.881149 1121.477051 10.027707 -0.533252 0.821018 0.326455 0.351693 1.851223 0.203741 -0.010627 -0.348914 0.259722 0.118601 0.303051 -1.139468 1.782331 4.373468 0.000000 0.000000 0.000000 1.529632 0.370197 5.496026 14.398932 -0.523667 -3.215289 -178.858203 37.596248 176.935825 0.000000 0.000000 0.000000 -8.097223 17.278078 -2.794938 -18.551927 6.672370 1.711330 54.662478 -18.212518 114.230881 0.000000 0.000000 0.000000 -10.139351 3.488518 -1.889293 -9.920806 -1.084888 -0.057331 -9.688276 -3.836572 -3.054293 0.000000 0.000000 0.000000 -2.204652 -3.271806 1.163730 -2.190549 6.227122 4.737178 -1.317417 -4.971036 -2.402678 0.000000 0.000000 0.000000 
210.374298 -74.837715 1121.468994 10.046145 -0.534261 0.822161 0.326041 0.366031 1.864085 0.203198 -0.013464 -0.351171 0.259161 0.123271 0.305282 -1.139898 1.780247 4.374529 0.000000 0.000000 0.000000 1.531113 0.376250 5.509748 14.355292 -0.531023 -3.206061 -178.900417 37.589049 176.943607 0.000000 0.000000 0.000000 -8.103974 17.278403 -2.807470 -18.557653 6.661754 1.707135 54.648393 -18.222132 114.234680 0.000000 0.000000 0.000000 -10.145158 3.479204 -1.899182 -9.927768 -1.069801 -0.050058 -9.693925 -3.834449 -3.057705 0.000000 0.000000 0.000000 -2.209108 -3.285117 1.162211 -2.194241 6.241434 4.732064 -1.320495 -4.963582 -2.401406 0.000000 0.000000 0.000000 
210.306961 -74.797234 1121.461060 10.065637 -0.534734 0.823278 0.324842 0.379148 1.876535 0.201837 -0.016517 -0.353647 0.257821 0.127242 0.307563 -1.140410 1.779558 4.375571 0.000000 0.000000 0.000000 1.533530 0.381837 5.522268 14.313460 -0.538448 -3.196102 -178.940685 37.582552 176.952823 0.000000 0.000000 0.000000 -8.110091 17.279555 -2.821106 -18.561127 6.652240 1.704065 54.635482 -18.231407 114.236570 0.000000 0.000000 0.000000 -10.151466 3.468856 -1.908746 -9.935287 -1.054410 -0.042712 -9.700105 -3.832056 -3.061469 0.000000 0.000000 0.000000 -2.213728 -3.299281 1.161734 -2.197938 6.255397 4.725176 -1.323656 -4.956174 -2.400188 0.000000 0.000000 0.000000 
210.240768 -74.760590 1121.453003 10.084069 -0.534610 0.824440 0.322823 0.386825 1.887917 0.199417 -0.017618 -0.355861 0.255561 0.130459 0.310200 -1.141290 1.783225 4.376798 0.000000 0.000000 0.000000 1.537707 0.388205 5.531702 14.276174 -0.546351 -3.183674 -178.976421 37.578176 176.964613 0.000000 0.000000 0.000000 -8.113026 17.282422 -2.838258 -18.559757 6.644479 1.704339 54.625510 -18.238974 114.233796 0.000000 0.000000 0.000000 -10.157498 3.458469 -1.917855 -9.942466 -1.040388 -0.035469 -9.706057 -3.828454 -3.065577 0.000000 0.000000 0.000000 -2.218296 -3.313473 1.162513 -2.201447 6.268323 4.716424 -1.326840 -4.947818 -2.398639 0.000000 0.000000 0.000000 
210.169388 -74.727570 1121.444946 10.103178 -0.533881 0.825189 0.320058 0.392619 1.899239 0.196249 -0.019301 -0.357273 0.252386 0.132815 0.311433 -1.142752 1.790084 4.379335 0.000000 0.000000 0.000000 1.542579 0.394911 5.539820 14.240851 -0.554512 -3.169375 -179.010025 37.575449 176.979287 0.000000 0.000000 0.000000 -8.114686 17.286224 -2.857115 -18.553336 6.638744 1.706015 54.619048 -18.246152 114.226793 0.000000 0.000000 0.000000 -10.163668 3.447338 -1.925849 -9.949787 -1.026656 -0.028762 -9.712202 -3.824558 -3.069886 0.000000 0.000000 0.000000 -2.223300 -3.328626 1.164836 -2.205202 6.281162 4.705944 -1.330329 -4.939594 -2.397278 0.000000 0.000000 0.000000 
210.097733 -74.693588 1121.436035 10.120957 -0.533720 0.826529 0.316217 0.396060 1.909341 0.191906 -0.020471 -0.359248 0.248221 0.134369 0.313674 -1.144045 1.799392 4.380707 0.000000 0.000000 0.000000 1.550921 0.401326 5.547350 14.211554 -0.561634 -3.156969 -179.038639 37.573992 176.993312 0.000000 0.000000 0.000000 -8.114495 17.291498 -2.876628 -18.548572 6.633506 1.707244 54.613177 -18.252796 114.221732 0.000000 0.000000 0.000000 -10.169644 3.436748 -1.935614 -9.956918 -1.012942 -0.020346 -9.718061 -3.820587 -3.074098 0.000000 0.000000 0.000000 -2.227603 -3.342836 1.167391 -2.208192 6.293570 4.693795 -1.333148 -4.931201 -2.395544 0.000000 0.000000 0.000000 
210.031738 -74.650627 1121.425049 10.135470 -0.536242 0.828600 0.311572 0.397125 1.918452 0.186621 -0.019816 -0.361171 0.243275 0.134122 0.315710 -1.144969 1.811105 4.380317 0.000000 0.000000 0.000000 1.563542 0.407638 5.556478 14.191906 -0.565952 -3.150716 -179.060007 37.573986 177.003791 0.000000 0.000000 0.000000 -8.113694 17.299015 -2.896273 -18.549267 6.629013 1.707323 54.606155 -18.258636 114.222796 0.000000 0.000000 0.000000 -10.174790 3.429135 -1.949396 -9.963150 -0.999196 -0.008212 -9.722829 -3.816155 -3.077983 0.000000 0.000000 0.000000 -2.230643 -3.353176 1.169751 -2.209943 6.305580 4.679923 -1.334788 -4.923443 -2.393493 0.000000 0.000000 0.000000 
209.970352 -74.602112 1121.412964 10.147453 -0.539866 0.831418 0.305943 0.394055 1.926871 0.180071 -0.017838 -0.364077 0.237283 0.132773 0.318062 -1.145781 1.826444 4.378716 0.000000 0.000000 0.000000 1.581225 0.414440 5.566070 14.181347 -0.567826 -3.148262 -179.073952 37.576206 177.011948 0.000000 0.000000 0.000000 -8.111346 17.308862 -2.916233 -18.552922 6.625707 1.706504 54.599190 -18.263789 114.227397 0.000000 0.000000 0.000000 -10.179312 3.422769 -1.965920 -9.968752 -0.985185 0.006278 -9.726824 -3.811867 -3.081462 0.000000 0.000000 0.000000 -2.232631 -3.361784 1.172326 -2.210562 6.317701 4.663804 -1.335311 -4.916436 -2.391196 0.000000 0.000000 0.000000 
